<svg width="95" height="25" viewBox="0 0 95 25" fill="none" xmlns="http://www.w3.org/2000/svg">
<circle cx="12.5" cy="12.5" r="12.5" fill="#DC5A52"/>
<circle cx="47.5" cy="12.5" r="12.5" fill="#DC5A52"/>
<circle cx="82.5" cy="12.5" r="12.5" fill="#DC5A52"/>
<g clip-path="url(#clip0)">
<path d="M17.4469 13.1425C17.2044 12.8363 17.2737 12.7 17.4469 12.4263C17.45 12.4231 19.4519 9.65688 19.6581 8.71875L19.6594 8.71813C19.7619 8.37625 19.6594 8.125 19.1637 8.125H17.5237C17.1062 8.125 16.9137 8.34063 16.8106 8.58188C16.8106 8.58188 15.9756 10.5806 14.7944 11.8763C14.4131 12.2506 14.2369 12.3706 14.0287 12.3706C13.9262 12.3706 13.7669 12.2506 13.7669 11.9088V8.71813C13.7669 8.30813 13.65 8.125 13.3044 8.125H10.7256C10.4637 8.125 10.3081 8.31625 10.3081 8.49438C10.3081 8.88313 10.8987 8.9725 10.96 10.0663V12.4394C10.96 12.9594 10.8656 13.055 10.6562 13.055C10.0987 13.055 8.74562 11.0481 7.94374 8.75125C7.78187 8.30562 7.62374 8.12562 7.20312 8.12562H5.56249C5.09437 8.12562 4.99999 8.34125 4.99999 8.5825C4.99999 9.00875 5.55749 11.1281 7.59249 13.9281C8.94874 15.8394 10.8587 16.875 12.5962 16.875C13.6406 16.875 13.7681 16.645 13.7681 16.2494C13.7681 14.4231 13.6737 14.2506 14.1969 14.2506C14.4394 14.2506 14.8569 14.3706 15.8319 15.2925C16.9462 16.3856 17.1294 16.875 17.7531 16.875H19.3931C19.8606 16.875 20.0975 16.645 19.9612 16.1913C19.6494 15.2369 17.5419 13.2738 17.4469 13.1425Z" fill="#F4F2ED"/>
</g>
<path d="M49.0606 7.49062H50.43V5.10563C50.1938 5.07312 49.3813 5 48.435 5C46.4606 5 45.1081 6.24187 45.1081 8.52437V10.625H42.9294V13.2913H45.1081V20H47.7794V13.2919H49.87L50.2019 10.6256H47.7788V8.78875C47.7794 8.01812 47.9869 7.49062 49.0606 7.49062Z" fill="#F4F2ED"/>
<g clip-path="url(#clip1)">
<path d="M89.9853 9.41004C89.9502 8.61303 89.8213 8.0651 89.6367 7.5903C89.4462 7.08632 89.1532 6.63511 88.7693 6.26001C88.3942 5.87908 87.94 5.58308 87.4419 5.39559C86.9643 5.21096 86.4192 5.08207 85.6222 5.04693C84.8193 5.00881 84.5644 5 82.5278 5C80.4913 5 80.2364 5.00881 79.4364 5.04395C78.6394 5.07909 78.0915 5.20809 77.6168 5.39261C77.1127 5.58308 76.6615 5.8761 76.2864 6.26001C75.9055 6.63511 75.6096 7.0893 75.422 7.58744C75.2373 8.0651 75.1085 8.61006 75.0733 9.40706C75.0352 10.21 75.0264 10.4649 75.0264 12.5015C75.0264 14.538 75.0352 14.7929 75.0703 15.5929C75.1055 16.3899 75.2345 16.9378 75.4191 17.4126C75.6096 17.9166 75.9055 18.3678 76.2864 18.7429C76.6615 19.1239 77.1157 19.4199 77.6138 19.6073C78.0915 19.792 78.6364 19.9209 79.4336 19.956C80.2334 19.9913 80.4884 20 82.525 20C84.5615 20 84.8164 19.9913 85.6164 19.956C86.4134 19.9209 86.9613 19.792 87.436 19.6073C88.4441 19.2176 89.2411 18.4206 89.6309 17.4126C89.8154 16.935 89.9444 16.3899 89.9795 15.5929C90.0146 14.7929 90.0235 14.538 90.0235 12.5015C90.0235 10.4649 90.0205 10.21 89.9853 9.41004ZM88.6346 15.5343C88.6023 16.2668 88.4792 16.6624 88.3767 16.9262C88.1246 17.5796 87.606 18.0983 86.9525 18.3503C86.6888 18.4529 86.2904 18.5759 85.5607 18.6081C84.7695 18.6433 84.5322 18.652 82.5308 18.652C80.5294 18.652 80.2892 18.6433 79.5009 18.6081C78.7683 18.5759 78.3727 18.4529 78.109 18.3503C77.7838 18.2301 77.4878 18.0397 77.2475 17.7906C76.9985 17.5473 76.808 17.2543 76.6878 16.9291C76.5853 16.6654 76.4622 16.2668 76.43 15.5373C76.3948 14.7461 76.3861 14.5087 76.3861 12.5073C76.3861 10.5059 76.3948 10.2657 76.43 9.47746C76.4622 8.74489 76.5853 8.34931 76.6878 8.08559C76.808 7.76028 76.9985 7.46439 77.2505 7.22402C77.4936 6.97495 77.7867 6.78448 78.112 6.66441C78.3757 6.56185 78.7742 6.4388 79.5038 6.40652C80.295 6.37138 80.5324 6.36257 82.5337 6.36257C84.538 6.36257 84.7753 6.37138 85.5636 6.40652C86.2962 6.4388 86.6918 6.56185 86.9555 6.66441C87.2807 6.78448 87.5767 6.97495 87.817 7.22402C88.066 7.46726 88.2565 7.76028 88.3767 8.08559C88.4792 8.34931 88.6023 8.74776 88.6346 9.47746C88.6697 10.2686 88.6785 10.5059 88.6785 12.5073C88.6785 14.5087 88.6697 14.7431 88.6346 15.5343Z" fill="#F4F2ED"/>
<path d="M82.5278 8.64844C80.4005 8.64844 78.6745 10.3743 78.6745 12.5017C78.6745 14.6291 80.4005 16.355 82.5278 16.355C84.6553 16.355 86.3811 14.6291 86.3811 12.5017C86.3811 10.3743 84.6553 8.64844 82.5278 8.64844ZM82.5278 15.0013C81.1478 15.0013 80.0283 13.8819 80.0283 12.5017C80.0283 11.1215 81.1478 10.0022 82.5278 10.0022C83.908 10.0022 85.0274 11.1215 85.0274 12.5017C85.0274 13.8819 83.908 15.0013 82.5278 15.0013Z" fill="#F4F2ED"/>
<path d="M87.4331 8.49576C87.4331 8.99253 87.0303 9.39533 86.5335 9.39533C86.0367 9.39533 85.6339 8.99253 85.6339 8.49576C85.6339 7.99887 86.0367 7.59619 86.5335 7.59619C87.0303 7.59619 87.4331 7.99887 87.4331 8.49576Z" fill="#F4F2ED"/>
</g>
<defs>
<clipPath id="clip0">
<rect width="15" height="15" fill="white" transform="translate(5 5)"/>
</clipPath>
<clipPath id="clip1">
<rect width="15" height="15" fill="white" transform="translate(75 5)"/>
</clipPath>
</defs>
</svg>
