<svg width="165" height="27" viewBox="0 0 165 27" fill="none" xmlns="http://www.w3.org/2000/svg">
<path d="M34.7855 25.38V20.9498H33.0874V20.088H37.432V20.9498H35.734V25.38H34.7855Z" fill="#DC5A52"/>
<path d="M41.9101 25.4707C41.3797 25.4707 40.9361 25.3119 40.5791 24.9944C40.2273 24.6719 40.0131 24.2611 39.9366 23.7621H39.2406V25.38H38.3227V21.3883H39.2406V23.0061H39.9366C40.0182 22.5173 40.2375 22.1141 40.5944 21.7965C40.9565 21.474 41.4001 21.3127 41.9254 21.3127C42.522 21.3127 43.0064 21.5118 43.3787 21.9099C43.7509 22.3081 43.937 22.802 43.937 23.3917C43.937 23.9713 43.7484 24.4627 43.371 24.8659C42.9937 25.2691 42.5067 25.4707 41.9101 25.4707ZM41.9254 24.6769C42.2721 24.6769 42.5398 24.5559 42.7285 24.314C42.9223 24.0671 43.0192 23.7596 43.0192 23.3917C43.0192 23.0288 42.9172 22.7239 42.7132 22.4769C42.5143 22.23 42.2466 22.1065 41.9101 22.1065C41.5633 22.1065 41.2956 22.2275 41.1069 22.4694C40.9182 22.7113 40.8239 23.0187 40.8239 23.3917C40.8239 23.7546 40.9233 24.0595 41.1222 24.3065C41.3211 24.5534 41.5888 24.6769 41.9254 24.6769Z" fill="#DC5A52"/>
<path d="M44.8811 25.38V21.3883H45.799L47.0611 23.2405L48.3308 21.3883H49.2487V25.38H48.3155V22.7189L47.0458 24.5106L45.7837 22.734V25.38H44.8811Z" fill="#DC5A52"/>
<path d="M52.2598 25.4707C51.6682 25.4707 51.1736 25.2767 50.7759 24.8886C50.3832 24.5005 50.1869 23.999 50.1869 23.3841C50.1869 22.8045 50.373 22.3131 50.7453 21.9099C51.1175 21.5067 51.5892 21.3051 52.1603 21.3051C52.7722 21.3051 53.2465 21.5118 53.583 21.9251C53.9247 22.3333 54.0955 22.8423 54.0955 23.4522C54.0955 23.5631 54.0904 23.6487 54.0802 23.7092H51.1124C51.1634 24.0267 51.2934 24.2762 51.5025 24.4577C51.7116 24.6341 51.9691 24.7223 52.2751 24.7223C52.6728 24.7223 53.0374 24.5635 53.3689 24.246L53.9119 24.7223C53.4938 25.2212 52.9431 25.4707 52.2598 25.4707ZM51.1048 23.1044H53.1776C53.147 22.797 53.0425 22.545 52.864 22.3484C52.6856 22.1519 52.4484 22.0536 52.1527 22.0536C51.8722 22.0536 51.6376 22.1519 51.449 22.3484C51.2603 22.5399 51.1456 22.7919 51.1048 23.1044Z" fill="#DC5A52"/>
<path d="M55.025 25.38V21.3883H55.9505V23.0061H57.7327V21.3883H58.6583V25.38H57.7327V23.7697H55.9505V25.38H55.025Z" fill="#DC5A52"/>
<path d="M61.6869 25.4707C61.0903 25.4707 60.5931 25.2716 60.1954 24.8735C59.7976 24.4703 59.5987 23.9814 59.5987 23.4068V23.3917C59.5987 22.8171 59.7976 22.3257 60.1954 21.9175C60.5982 21.5093 61.0979 21.3051 61.6946 21.3051C62.3473 21.3051 62.8853 21.5345 63.3085 21.9931L62.7348 22.6055C62.4136 22.2728 62.0643 22.1065 61.6869 22.1065C61.3555 22.1065 61.0775 22.23 60.8532 22.4769C60.6339 22.7239 60.5243 23.0238 60.5243 23.3766V23.3917C60.5243 23.7546 60.6365 24.0595 60.8608 24.3065C61.0903 24.5534 61.381 24.6769 61.7328 24.6769C62.1051 24.6769 62.4544 24.5106 62.7807 24.1779L63.3391 24.7223C63.1198 24.9642 62.8802 25.1507 62.6201 25.2817C62.3651 25.4077 62.0541 25.4707 61.6869 25.4707Z" fill="#DC5A52"/>
<path d="M64.153 25.38V21.3883H65.0709V23.301L66.8302 21.3883H67.9163L66.3483 23.0666L68.0464 25.38H66.9525L65.7287 23.7319L65.0709 24.4199V25.38H64.153Z" fill="#DC5A52"/>
<path d="M72.0756 25.38H71.1578V24.8886C70.8314 25.2716 70.3954 25.4631 69.8498 25.4631C69.4469 25.4631 69.1053 25.3548 68.8248 25.1381C68.5495 24.9163 68.4118 24.6089 68.4118 24.2157C68.4118 23.7873 68.5622 23.4623 68.8631 23.2405C69.1639 23.0187 69.5591 22.9079 70.0487 22.9079C70.4413 22.9079 70.8136 22.9633 71.1654 23.0742V22.9986C71.1654 22.7214 71.0787 22.5097 70.9053 22.3635C70.7371 22.2174 70.4923 22.1443 70.171 22.1443C69.8039 22.1443 69.4189 22.2275 69.016 22.3938L68.7636 21.6605C69.2634 21.4387 69.7758 21.3278 70.3011 21.3278C70.8875 21.3278 71.3286 21.474 71.6244 21.7663C71.9252 22.0586 72.0756 22.4744 72.0756 23.0137V25.38ZM71.1807 23.936V23.7092C70.9053 23.6034 70.5968 23.5505 70.2552 23.5505C69.9645 23.5505 69.7376 23.6059 69.5744 23.7168C69.4112 23.8277 69.3297 23.9839 69.3297 24.1855C69.3297 24.3669 69.4036 24.5106 69.5515 24.6164C69.6994 24.7223 69.8855 24.7752 70.1099 24.7752C70.4209 24.7752 70.6759 24.6971 70.8748 24.5408C71.0787 24.3846 71.1807 24.183 71.1807 23.936Z" fill="#DC5A52"/>
<path d="M72.8093 25.38L73.926 23.8831C73.6405 23.7974 73.411 23.6538 73.2376 23.4522C73.0694 23.2455 72.9852 22.991 72.9852 22.6886C72.9852 22.2955 73.1255 21.9805 73.4059 21.7436C73.6864 21.5067 74.0765 21.3883 74.5762 21.3883H76.6032V25.38H75.6777V24.0343H74.8516L73.8955 25.38H72.8093ZM74.7062 23.3463H75.6777V22.1292H74.6986C74.4538 22.1292 74.2601 22.1846 74.1173 22.2955C73.9796 22.4013 73.9107 22.5475 73.9107 22.734C73.9107 22.9255 73.9821 23.0767 74.1249 23.1876C74.2728 23.2934 74.4666 23.3463 74.7062 23.3463Z" fill="#DC5A52"/>
<path d="M81.976 25.4707C81.3641 25.4707 80.8541 25.2691 80.4462 24.8659C80.0382 24.4627 79.8342 23.9713 79.8342 23.3917C79.8342 22.8121 80.0408 22.3207 80.4538 21.9175C80.8669 21.5093 81.3793 21.3051 81.9913 21.3051C82.6032 21.3051 83.1131 21.5067 83.5211 21.9099C83.9341 22.3131 84.1406 22.8071 84.1406 23.3917C84.1406 23.9663 83.9341 24.4577 83.5211 24.8659C83.108 25.2691 82.593 25.4707 81.976 25.4707ZM81.9913 24.6769C82.3584 24.6769 82.6542 24.5534 82.8786 24.3065C83.1029 24.0595 83.2151 23.7546 83.2151 23.3917C83.2151 23.0339 83.0978 22.7315 82.8633 22.4845C82.6287 22.2325 82.3329 22.1065 81.976 22.1065C81.6139 22.1065 81.3207 22.23 81.0963 22.4769C80.872 22.7239 80.7598 23.0288 80.7598 23.3917C80.7598 23.7445 80.8771 24.0469 81.1116 24.2989C81.3462 24.5509 81.6394 24.6769 81.9913 24.6769Z" fill="#DC5A52"/>
<path d="M87.0566 24.6769C87.3983 24.6769 87.6762 24.561 87.8904 24.3291C88.1097 24.0923 88.2193 23.7999 88.2193 23.4522C88.2193 23.1095 88.1046 22.8197 87.8751 22.5828C87.6507 22.3409 87.3728 22.2199 87.0413 22.2199C86.7048 22.2199 86.4269 22.3383 86.2076 22.5752C85.9934 22.8121 85.8863 23.1044 85.8863 23.4522C85.8863 23.7949 85.9985 24.0847 86.2229 24.3216C86.4473 24.5585 86.7252 24.6769 87.0566 24.6769ZM87.0413 25.4707C86.3886 25.4707 85.8787 25.2666 85.5115 24.8583C85.1444 24.4501 84.9608 23.8781 84.9608 23.1422C84.9608 22.9053 84.9659 22.6987 84.9761 22.5223C84.9914 22.3409 85.0169 22.1468 85.0526 21.9402C85.0883 21.7285 85.1418 21.5445 85.2132 21.3883C85.2897 21.2321 85.3841 21.0834 85.4962 20.9423C85.6135 20.7961 85.7614 20.6751 85.9399 20.5794C86.1235 20.4786 86.3351 20.403 86.5748 20.3526L88.7777 19.899L88.9307 20.6323L86.7277 21.1086C86.3606 21.1842 86.098 21.3203 85.9399 21.5168C85.7818 21.7083 85.69 21.9503 85.6645 22.2426C85.7869 22.041 85.9781 21.8671 86.2382 21.7209C86.5034 21.5697 86.8297 21.4941 87.2173 21.4941C87.7425 21.4941 88.1938 21.6831 88.5711 22.0611C88.9536 22.4341 89.1448 22.8927 89.1448 23.4371C89.1448 23.9965 88.9434 24.4753 88.5406 24.8735C88.1428 25.2716 87.6431 25.4707 87.0413 25.4707Z" fill="#DC5A52"/>
<path d="M90.0573 25.4253C89.9094 25.4253 89.7284 25.4077 89.5142 25.3724L89.5831 24.624C89.6647 24.6441 89.7539 24.6542 89.8508 24.6542C89.9579 24.6542 90.0446 24.6391 90.1109 24.6089C90.1823 24.5786 90.2537 24.503 90.325 24.3821C90.4015 24.2561 90.4602 24.0797 90.501 23.8529C90.5418 23.6261 90.5749 23.3085 90.6004 22.9003C90.6259 22.487 90.6386 21.983 90.6386 21.3883H93.6906V25.38H92.7651V22.1745H91.503C91.503 22.7441 91.48 23.2279 91.4341 23.6261C91.3883 24.0242 91.3271 24.3392 91.2506 24.5711C91.1792 24.8029 91.0772 24.9843 90.9446 25.1154C90.8171 25.2414 90.6871 25.3245 90.5545 25.3649C90.4219 25.4052 90.2562 25.4253 90.0573 25.4253Z" fill="#DC5A52"/>
<path d="M98.2421 25.38H97.3242V24.8886C96.9979 25.2716 96.5619 25.4631 96.0163 25.4631C95.6134 25.4631 95.2718 25.3548 94.9913 25.1381C94.7159 24.9163 94.5782 24.6089 94.5782 24.2157C94.5782 23.7873 94.7287 23.4623 95.0295 23.2405C95.3304 23.0187 95.7256 22.9079 96.2151 22.9079C96.6078 22.9079 96.98 22.9633 97.3319 23.0742V22.9986C97.3319 22.7214 97.2452 22.5097 97.0718 22.3635C96.9035 22.2174 96.6588 22.1443 96.3375 22.1443C95.9704 22.1443 95.5854 22.2275 95.1825 22.3938L94.9301 21.6605C95.4298 21.4387 95.9423 21.3278 96.4676 21.3278C97.054 21.3278 97.4951 21.474 97.7908 21.7663C98.0917 22.0586 98.2421 22.4744 98.2421 23.0137V25.38ZM97.3472 23.936V23.7092C97.0718 23.6034 96.7633 23.5505 96.4217 23.5505C96.131 23.5505 95.9041 23.6059 95.7409 23.7168C95.5777 23.8277 95.4961 23.9839 95.4961 24.1855C95.4961 24.3669 95.5701 24.5106 95.718 24.6164C95.8658 24.7223 96.052 24.7752 96.2763 24.7752C96.5874 24.7752 96.8424 24.6971 97.0412 24.5408C97.2452 24.3846 97.3472 24.183 97.3472 23.936Z" fill="#DC5A52"/>
<path d="M101.209 25.4707C100.613 25.4707 100.115 25.2716 99.7177 24.8735C99.32 24.4703 99.1211 23.9814 99.1211 23.4068V23.3917C99.1211 22.8171 99.32 22.3257 99.7177 21.9175C100.121 21.5093 100.62 21.3051 101.217 21.3051C101.87 21.3051 102.408 21.5345 102.831 21.9931L102.257 22.6055C101.936 22.2728 101.587 22.1065 101.209 22.1065C100.878 22.1065 100.6 22.23 100.376 22.4769C100.156 22.7239 100.047 23.0238 100.047 23.3766V23.3917C100.047 23.7546 100.159 24.0595 100.383 24.3065C100.613 24.5534 100.903 24.6769 101.255 24.6769C101.627 24.6769 101.977 24.5106 102.303 24.1779L102.861 24.7223C102.642 24.9642 102.403 25.1507 102.142 25.2817C101.887 25.4077 101.576 25.4707 101.209 25.4707Z" fill="#DC5A52"/>
<path d="M104.54 25.38V22.1745H103.239V21.3883H106.773V22.1745H105.473V25.38H104.54Z" fill="#DC5A52"/>
<path d="M107.507 25.38V21.3883H108.433V22.7869H109.358C109.838 22.7869 110.225 22.8927 110.521 23.1044C110.817 23.3161 110.965 23.6311 110.965 24.0494C110.965 24.4627 110.827 24.7878 110.552 25.0247C110.276 25.2615 109.901 25.38 109.427 25.38H107.507ZM108.433 24.6391H109.305C109.539 24.6391 109.72 24.5887 109.848 24.4879C109.975 24.3871 110.039 24.2409 110.039 24.0494C110.039 23.873 109.973 23.7369 109.84 23.6412C109.713 23.5454 109.529 23.4975 109.29 23.4975H108.433V24.6391Z" fill="#DC5A52"/>
<path d="M38.8854 15.8717C37.3352 15.8717 36.0246 15.3526 34.9538 14.3143C33.8931 13.266 33.3628 11.9506 33.3628 10.368C33.3628 8.81568 33.8982 7.51032 34.9691 6.45192C36.0501 5.39352 37.3964 4.86432 39.0078 4.86432C40.9149 4.86432 42.4141 5.61024 43.5054 7.10208L41.3331 8.76528C40.6701 7.9488 39.8848 7.54056 38.9772 7.54056C38.2327 7.54056 37.6207 7.81272 37.1414 8.35704C36.6621 8.90136 36.4224 9.57168 36.4224 10.368C36.4224 11.1744 36.6621 11.8498 37.1414 12.3941C37.6207 12.9283 38.2327 13.1954 38.9772 13.1954C39.4973 13.1954 39.9409 13.0896 40.3081 12.8779C40.6752 12.6562 41.0373 12.3336 41.3942 11.9102L43.6278 13.4827C43.0668 14.2387 42.4141 14.8284 41.6696 15.2518C40.9251 15.665 39.997 15.8717 38.8854 15.8717Z" fill="#DC5A52"/>
<path d="M47.5206 15.66V7.6464H44.308V5.076H53.701V7.6464H50.4884V15.66H47.5206Z" fill="#DC5A52"/>
<path d="M55.0037 15.66V5.076H63.6165V7.5708H57.941V9.17352H63.0811V11.4869H57.941V13.1652H63.693V15.66H55.0037Z" fill="#DC5A52"/>
<path d="M65.2074 15.66V5.076H68.1752V9.03744H71.9844V5.076H74.9522V15.66H71.9844V11.6381H68.1752V15.66H65.2074Z" fill="#DC5A52"/>
<path d="M75.9885 15.66L80.5474 5.0004H83.4081L87.9669 15.66H84.7849L84.0047 13.77H79.8742L79.1093 15.66H75.9885ZM80.7462 11.4869H83.148L81.9548 8.478L80.7462 11.4869Z" fill="#DC5A52"/>
<path d="M93.2488 15.66V5.076H102.841V15.66H99.8728V7.6464H96.2166V15.66H93.2488Z" fill="#DC5A52"/>
<path d="M103.881 15.66L108.439 5.0004H111.3L115.859 15.66H112.677L111.897 13.77H107.766L107.001 15.66H103.881ZM108.638 11.4869H111.04L109.847 8.478L108.638 11.4869Z" fill="#DC5A52"/>
<path d="M116.898 15.66V5.076H120.034L122.589 9.17352L125.144 5.076H128.28V15.66H125.327V9.58176L122.589 13.7246H122.528L119.805 9.612V15.66H116.898Z" fill="#DC5A52"/>
<path d="M129.69 15.66L132.244 11.9707C130.776 11.3558 130.041 10.2622 130.041 8.68968C130.041 7.51032 130.454 6.6132 131.281 5.99832C132.117 5.38344 133.183 5.076 134.478 5.076H139.542V15.66H136.574V12.4546H135.273L133.116 15.66H129.69ZM134.616 10.2017H136.574V7.5708H134.631C134.131 7.5708 133.738 7.68672 133.453 7.91856C133.167 8.1504 133.025 8.478 133.025 8.90136C133.025 9.29448 133.162 9.612 133.438 9.85392C133.723 10.0858 134.116 10.2017 134.616 10.2017Z" fill="#DC5A52"/>
<path d="M144.059 15.66V7.6464H140.847V5.076H150.24V7.6464H147.027V15.66H144.059Z" fill="#DC5A52"/>
<path d="M151.543 15.66V5.076H154.48V11.0333L158.626 5.076H161.394V15.66H158.457V9.70272L154.312 15.66H151.543Z" fill="#DC5A52"/>
<g clip-path="url(#clip0)">
<path fill-rule="evenodd" clip-rule="evenodd" d="M14.5488 0.168488L18.6055 8.74378C18.6555 8.83259 18.7354 8.90167 18.8353 8.91154L25.2801 9.71084C25.7197 9.78979 25.8197 10.3424 24.8305 10.3424C22.2226 10.3325 19.9744 10.5003 18.046 10.8161L17.0967 11.0726C17.0967 11.0529 17.0867 11.0332 17.0767 11.0134C17.0468 10.9246 17.0068 10.8062 16.9568 10.6779C16.9169 10.5792 16.8769 10.4805 16.8269 10.372V10.3523C16.797 10.2931 16.767 10.224 16.717 10.1253C16.6871 10.0365 16.6471 9.96741 16.6271 9.91807C16.0975 8.81286 15.3981 7.79645 14.5388 6.89846C13.7494 6.07942 12.8402 5.37879 11.811 4.82618L14.0192 0.168488C14.0692 0.0599404 14.1691 0.000732422 14.279 0.000732422C14.3989 0.000732422 14.4988 0.0599404 14.5488 0.168488ZM16.4473 11.2404C17.0668 12.9081 17.9361 15.306 20.1143 14.4475C22.6722 13.4508 22.5423 11.418 25.1003 12.5232C25.8297 12.7699 27.2085 12.7699 27.3085 12.9278C27.3684 13.0265 27.2085 13.0561 26.7689 13.1252C24.7705 13.4607 23.3916 13.7271 22.3025 14.6942C17.0668 19.0756 16.4872 17.546 13.3697 19.4506C12.7902 19.8058 11.9809 20.24 11.2215 20.615L11.1915 20.6347L11.1615 20.6446L11.1316 20.6643L11.1016 20.6742L11.0616 20.6939L11.0416 20.7038L11.0316 20.7137L11.0017 20.7235L10.9917 20.7334L10.9717 20.7433L10.9417 20.7531L10.9217 20.763L10.9117 20.7729L10.8718 20.7827V20.7926L10.8418 20.8025L10.8118 20.8123L10.7918 20.8222L10.7818 20.8321L10.7519 20.8419C10.7119 20.8617 10.6719 20.8814 10.632 20.9012L10.602 20.911L10.572 20.9308L10.542 20.9406H10.532L10.4821 20.9702L10.4521 20.9801L10.4221 20.99V20.9998H10.4022L10.3722 21.0196L10.3422 21.0294L10.3122 21.0393L10.3022 21.0492H10.2822L10.2623 21.0689H10.2423L10.2323 21.0788L10.2023 21.0886L10.1823 21.0985L10.1524 21.1084L10.1424 21.1183H10.1224L10.1024 21.1281L10.0924 21.138L10.0724 21.1479L10.0424 21.1577L10.0125 21.1676L9.98249 21.1775L9.9725 21.1873H9.96251L9.92254 21.2071C9.90256 21.2071 9.88257 21.2169 9.87258 21.2268L9.83261 21.2367L9.81263 21.2465C9.79264 21.2564 9.76267 21.2663 9.73269 21.2761L9.69273 21.286H9.68273L9.65276 21.3057H9.64277L9.61279 21.3156H9.6028L9.57282 21.3255H9.56283C9.55284 21.3354 9.54285 21.3354 9.53285 21.3354C9.41295 21.365 8.55365 21.3057 8.72351 21.138H8.7335H8.74349V21.1281H8.75349L8.76348 21.1183H8.77347H8.78346L8.79345 21.1084H8.80344L8.82343 21.0985L8.83342 21.0886H8.8534L8.8634 21.0788L8.88338 21.0689H8.89337L8.90336 21.059H8.92335L8.93334 21.0492H8.94333L8.96332 21.0393L8.9833 21.0294L9.01328 21.0196L9.03326 21.0097L9.05324 20.9998L9.16315 20.9505L9.19313 20.9406L9.22311 20.9308L9.25308 20.911L9.28306 20.9012L9.31303 20.8913L9.34301 20.8716L9.37298 20.8617L9.40296 20.8419L9.44293 20.8321L9.4729 20.8123L9.50288 20.8025C9.76267 20.6841 10.0524 20.5459 10.3722 20.3979L10.4121 20.3683C10.4721 20.3485 10.532 20.3189 10.592 20.2893C11.6112 19.7663 12.7502 19.0854 13.1999 18.4539C12.8102 18.4144 11.1016 18.7302 10.5221 18.1677C10.1224 17.7829 10.4022 17.8519 10.8518 17.773C11.7511 17.6052 12.4905 17.546 13.5096 17.0428C12.9601 16.2731 12.7003 15.5132 12.5804 14.783L12.5904 14.7731C12.5804 14.7534 12.5704 14.7337 12.5604 14.7139C12.5404 14.6547 12.5304 14.5955 12.5304 14.5264C12.5204 14.4475 12.5204 14.4179 12.5104 14.3389C12.2507 14.2205 12.2007 14.1613 12.1907 13.9047C12.1907 13.8258 12.2207 13.7962 12.2407 13.6975C12.0308 13.589 11.851 13.5495 11.861 13.2929L11.871 13.1054C11.871 13.1054 11.871 13.0956 11.871 13.0857L11.801 13.0956C11.7111 13.1054 11.6411 13.1153 11.5512 13.066C11.5412 13.0265 11.5512 12.9772 11.5612 12.9377V12.9278V12.9179V12.9081V12.8982L11.5712 12.8883V12.8785V12.8686L11.5812 12.8587V12.8489V12.839L11.5912 12.8291V12.8193V12.8094H11.6012V12.7995V12.7897L11.6112 12.7798V12.7699H11.6212V12.7601V12.7502L11.6312 12.7403V12.7305L11.6411 12.7206L11.6511 12.7008L11.6611 12.691V12.6811L11.6711 12.6712V12.6614L11.6811 12.6515L11.6911 12.6416V12.6318V12.6219H11.7011V12.612L11.7111 12.6022V12.5923L11.7211 12.5824L11.7311 12.5726V12.5627V12.5528H11.7411V12.543L11.7511 12.5331V12.5232H11.7611V12.5134L11.771 12.5035V12.4936L11.781 12.4838V12.4739L11.791 12.464V12.4541H11.801V12.4443L11.811 12.4344V12.4245V12.4147H11.821V12.4048L11.831 12.3949V12.3851L11.841 12.3752V12.3653V12.3555H11.851V12.3456L11.861 12.3259C11.6212 12.3653 11.3314 12.4147 10.9817 12.0693C11.2315 11.566 12.2806 11.6746 12.5104 11.2206H12.0408C12.0308 11.2206 12.0009 11.2206 11.9709 11.2206C11.1815 11.191 10.9217 10.9049 10.582 10.3325C10.582 10.3128 10.562 10.2635 10.562 10.2635C11.0816 10.0858 11.9209 10.5496 12.6204 10.3621C12.4105 10.1352 10.7019 10.0069 10.3022 8.9214C10.2523 8.80299 10.2223 8.70431 10.2922 8.53655C11.1815 8.98061 11.9009 9.16811 12.8502 9.45428C12.8502 9.44441 12.8402 9.44441 12.8402 9.43454C12.8402 9.43454 12.8302 9.43454 12.8302 9.42467C12.8302 9.42467 12.8202 9.42467 12.8202 9.41481C12.8102 9.40494 12.8102 9.40494 12.8002 9.40494L12.7902 9.39507C12.7902 9.39507 12.7902 9.3852 12.7802 9.3852L12.7702 9.37533L12.7602 9.36547H12.7502L12.7303 9.34573H12.7203L12.7103 9.33586L12.7003 9.32599L12.6803 9.31612L12.6703 9.30626L12.6503 9.29639L12.6403 9.28652L12.6204 9.27665H12.6104L12.5904 9.26678L12.5804 9.25692L12.5504 9.24705L12.5404 9.23718L12.5204 9.22731L12.5104 9.21745L12.4805 9.20758H12.4705L12.4405 9.18784L12.4005 9.16811C11.7611 8.8622 10.6919 8.49708 10.2423 7.905C10.0824 7.69777 9.93253 7.4116 10.1024 7.1945C10.1923 7.23398 10.3622 7.31292 10.582 7.42147L10.612 7.43134L10.632 7.44121L10.6619 7.46094L10.6819 7.47081L10.7319 7.49054L10.7818 7.52015H10.7918L10.8318 7.53989L10.8518 7.54975L10.8918 7.56949L10.9217 7.57936L10.9417 7.59909L10.9917 7.61883H11.0017L11.0616 7.64843L11.1116 7.67804H11.1316L11.1715 7.69777L11.2015 7.71751L11.2315 7.72738L11.2714 7.74711L11.2914 7.75698L11.3514 7.78658L11.4113 7.81619H11.4213L11.4813 7.84579L11.5013 7.85566L11.5412 7.8754L11.5812 7.89513L11.6012 7.905L11.6511 7.92474L11.6711 7.93461L11.7311 7.96421L11.791 7.99381L11.811 8.00368L11.861 8.02342L11.8909 8.03329L11.9209 8.05302L11.9709 8.07276L11.9909 8.08263L12.0408 8.10236L12.0508 8.11223L12.1108 8.14183H12.1208L12.1807 8.17144L12.2007 8.1813L12.2407 8.19117L12.2806 8.21091L12.3006 8.22078L12.3506 8.25038H12.3706L12.4305 8.27999L12.4905 8.30959L12.5005 8.31946L12.5504 8.33919L12.5804 8.34906L12.6104 8.35893L12.6703 8.38853L12.7203 8.40827L12.7902 8.43787V8.44774H12.8002L12.8602 8.47734L12.9001 8.48721L12.9301 8.50695H12.9401L12.9901 8.52668L13 8.53655H13.01L13.06 8.55629L13.11 8.58589H13.12L13.1399 8.59576L13.1799 8.60563L13.1899 8.6155L13.2299 8.63523H13.2399L13.2598 8.6451H13.2698L13.3198 8.66484L13.3498 8.68457L13.3897 8.69444H13.3997L13.4197 8.70431L13.4397 8.71418L13.4597 8.72404L13.4897 8.73391L13.4996 8.74378L13.5396 8.75365L13.5796 8.77339H13.5896L13.6096 8.78325H13.6295L13.6495 8.79312H13.6595L13.6795 8.80299H13.6895C13.6995 8.81286 13.6995 8.81286 13.7095 8.81286H13.7195C13.7195 8.81286 13.7295 8.82273 13.7394 8.82273H13.7494H13.7594H13.7694H13.7794C13.7794 8.82273 13.7794 8.83259 13.7894 8.82273C12.9301 8.02342 11.9109 7.42147 10.9117 6.81952H10.9017V6.80965H10.8918H10.8818V6.79978C10.572 6.60242 10.3122 6.28665 10.2323 5.94127L10.2123 5.83272C10.2123 5.77351 10.2123 5.73404 10.2423 5.66496C10.562 5.61562 10.9317 5.77351 11.2615 5.99061L11.2914 6.01034L11.3014 6.02021L11.3314 6.03995L11.3614 6.05968V6.06955H11.3714L11.4013 6.08929C11.4113 6.09916 11.4213 6.10903 11.4313 6.11889H11.4413L11.4713 6.13863V6.1485L11.5013 6.16823H11.5113L11.5412 6.18797L11.5712 6.21757L11.6012 6.23731V6.24718H11.6112L11.6312 6.26691L11.6611 6.29652H11.6711L11.6911 6.31625L11.7011 6.32612L11.7211 6.34586H11.7311L11.7411 6.35572L11.7511 6.36559L11.7611 6.37546L11.771 6.38533L11.781 6.3952L11.811 6.41493L11.821 6.4248L11.841 6.44454L11.851 6.4544L11.861 6.46427L11.881 6.48401H11.8909L11.9009 6.49388L11.9109 6.50374V6.51361L11.9209 6.52348L11.9409 6.53335L11.9509 6.54322L11.9609 6.55308L11.9809 6.57282L11.9909 6.58269L12.0009 6.59256L12.0108 6.60242L12.0208 6.61229L12.0408 6.62216V6.63203H12.0508L12.0608 6.6419L12.0708 6.65176L12.0808 6.66163L12.0908 6.6715V6.68137L12.1008 6.69124H12.1108L12.1208 6.7011L12.1308 6.71097L12.1407 6.72084V6.73071H12.1507L12.1607 6.74058L12.1707 6.75044L12.1607 6.73071H12.1507V6.71097H12.1407V6.7011H12.1308V6.69124L12.1208 6.68137V6.6715L12.1108 6.66163H12.1008L12.0908 6.65176V6.6419L12.0808 6.63203L12.0708 6.62216L12.0608 6.61229V6.60242L12.0508 6.59256L12.0408 6.58269L12.0308 6.56295H12.0208L12.0108 6.55308L12.0009 6.54322V6.53335L11.9909 6.52348V6.51361L11.9809 6.50374L11.9709 6.49388H11.9609L11.9509 6.47414L11.9409 6.4544H11.9309L11.9209 6.44454L11.9109 6.4248L11.8909 6.40507L11.881 6.3952L11.871 6.38533V6.37546L11.851 6.36559V6.35572C11.831 6.33599 11.821 6.31625 11.801 6.29652L11.791 6.28665L11.781 6.27678L11.771 6.25704L11.7611 6.23731H11.7511L11.7411 6.22744L11.7311 6.20771L11.7111 6.18797L11.7011 6.16823L11.6711 6.13863L11.6611 6.11889C11.6212 6.06955 11.5912 6.03008 11.5612 5.98074L11.5512 5.97087C11.5412 5.95114 11.5312 5.94127 11.5212 5.92153H11.5113L11.5013 5.9018L11.4913 5.89193C11.4813 5.87219 11.4813 5.86232 11.4713 5.85246L11.4613 5.83272L11.4513 5.82285V5.81298L11.4413 5.80312L11.4313 5.79325L11.4213 5.77351V5.76364L11.4113 5.75378V5.74391L11.4013 5.73404L11.3913 5.7143C11.3114 5.56628 11.2714 5.41826 11.3114 5.30972C11.3913 5.34919 11.4613 5.38866 11.5312 5.42813C11.811 5.57615 12.0908 5.74391 12.3506 5.92153C12.3805 5.94127 12.4005 5.961 12.4305 5.98074H12.4405C12.4705 6.00048 12.4905 6.02021 12.5204 6.03995H12.5304C12.5504 6.05968 12.5804 6.07942 12.6004 6.09916L12.6104 6.10903C12.6403 6.11889 12.6603 6.13863 12.6803 6.15836L12.7003 6.16823C12.7203 6.18797 12.7502 6.20771 12.7702 6.21757L12.7902 6.23731C12.8102 6.24718 12.8302 6.26691 12.8502 6.27678L12.8702 6.29652C12.8901 6.31625 12.9101 6.32612 12.9301 6.34586L12.9601 6.36559C12.9801 6.37546 13 6.3952 13.02 6.41493L13.04 6.43467C13.06 6.44454 13.08 6.46427 13.1 6.47414L13.1299 6.49388C13.1399 6.51361 13.1599 6.53335 13.1799 6.54322L13.2099 6.56295C13.2299 6.58269 13.2399 6.59256 13.2598 6.61229L13.2898 6.63203C13.3098 6.65176 13.3298 6.66163 13.3498 6.68137L13.3697 6.7011C13.3897 6.72084 13.4097 6.73071 13.4197 6.75044L13.4497 6.77018C13.4697 6.78992 13.4797 6.79978 13.4996 6.81952L13.5296 6.83926C13.5396 6.85899 13.5596 6.87873 13.5796 6.8886L13.6096 6.9182C13.6195 6.92807 13.6395 6.9478 13.6595 6.96754L13.6795 6.98728C13.6995 7.00701 13.7195 7.01688 13.7394 7.03662L13.7594 7.05635C13.7794 7.07609 13.7894 7.09582 13.8094 7.10569L13.8294 7.12543C13.8494 7.14516 13.8693 7.1649 13.8893 7.18464L13.9093 7.20437C13.9193 7.22411 13.9393 7.24384 13.9593 7.25371L13.9793 7.27345C13.9992 7.29318 14.0192 7.31292 14.0392 7.33266L14.0492 7.35239C14.0692 7.37213 14.0892 7.39186 14.1091 7.4116L14.1191 7.42147C14.1391 7.44121 14.1591 7.46094 14.1791 7.49054L14.1891 7.50041C14.299 7.61883 14.4189 7.74711 14.5188 7.8754C14.5388 7.89513 14.5588 7.91487 14.5788 7.93461L14.5888 7.95434C14.6087 7.97408 14.6187 7.98394 14.6287 8.00368L14.6587 8.04315L14.6987 8.08263L14.7286 8.1221C14.7386 8.14183 14.7486 8.1517 14.7686 8.17144L14.7886 8.20104L14.8286 8.25038L14.8585 8.28985L14.8885 8.32932L14.9185 8.3688C14.9285 8.38853 14.9385 8.3984 14.9485 8.41814L14.9784 8.45761L15.0084 8.49708L15.0384 8.53655L15.0784 8.58589L15.0983 8.62537L15.1283 8.66484L15.1583 8.71418L15.1883 8.75365L15.2183 8.79312L15.2482 8.84246L15.2782 8.8918L15.3082 8.93127L15.3382 8.97075L15.3681 9.02009L15.3881 9.05956L15.4181 9.1089L15.4481 9.15824L15.478 9.19771L15.498 9.23718L15.528 9.28652L15.558 9.32599L15.588 9.37533L15.6079 9.41481L15.6379 9.46414L15.6579 9.50362L15.6879 9.55296C15.6979 9.57269 15.7079 9.59243 15.7178 9.6023L15.7378 9.64177C15.7478 9.6615 15.7578 9.68124 15.7678 9.70098L15.7878 9.74045L15.8178 9.78979L15.8377 9.82926C15.8477 9.849 15.8477 9.85886 15.8577 9.8786L15.8877 9.92794L15.9077 9.96741L15.9277 10.0168L15.9477 10.0464C15.9776 10.0957 15.9976 10.1549 16.0176 10.2042C16.0776 10.3128 16.1375 10.4509 16.1975 10.599C16.2874 10.8062 16.3773 11.0233 16.4473 11.2305V11.2404ZM11.4913 5.89193C11.4813 5.87219 11.4813 5.86232 11.4713 5.85246L11.4913 5.89193ZM10.9417 13.3423C7.9941 15.4738 8.04406 18.2368 9.98249 19.8552C9.33302 20.1611 8.77347 20.4078 8.55365 20.4966L8.44374 20.536C8.37379 20.5755 8.30385 20.615 8.2439 20.6742C8.114 20.8123 8.04406 20.9604 8.03407 21.1281C8.00409 21.4538 8.16396 21.6807 8.45373 21.8288C8.53366 21.8781 8.64357 21.9077 8.76348 21.9373C9.06323 22.0064 9.58281 22.0064 9.71271 21.9768C10.1224 21.8584 10.7918 21.5722 11.4913 21.2169C11.6911 21.1281 11.8909 21.0294 12.0908 20.9209C14.3989 21.5623 17.6763 21.1775 21.3633 18.8782C21.4432 18.8289 21.5431 18.8289 21.6331 18.8683C21.723 18.9078 21.7829 18.9769 21.8029 19.0756L23.2218 26.6542C23.2418 26.7726 23.1918 26.8812 23.1019 26.9502C23.002 27.0095 22.882 27.0193 22.7821 26.97L14.4289 22.4011C14.339 22.3419 14.2291 22.3419 14.1391 22.4011L5.78589 26.97C5.68597 27.0193 5.56607 27.0095 5.46615 26.9502C5.37622 26.8812 5.32626 26.7726 5.34624 26.6542L7.14479 17.3487C7.16477 17.25 7.1348 17.1513 7.05486 17.0822L0.0904993 10.599C0.010564 10.5102 -0.0194118 10.4016 0.0205559 10.2931C0.0505316 10.1845 0.140459 10.1056 0.260362 10.0957L9.6028 8.9214C9.62278 9.00035 9.64277 9.06942 9.67274 9.1385C9.77266 9.40494 9.91255 9.62203 10.0724 9.80953C9.93253 9.95755 9.87258 10.1648 9.90256 10.372C9.91255 10.4115 9.92254 10.4509 9.93253 10.4904C9.94252 10.5003 9.95251 10.5398 9.9725 10.5792C9.98249 10.6088 9.99248 10.6286 10.0025 10.6582C10.1923 10.9739 10.3722 11.2305 10.622 11.4377C10.532 11.5266 10.4521 11.6351 10.3822 11.7733C10.2623 12.02 10.3022 12.3259 10.5121 12.5331C10.642 12.6614 10.7719 12.7601 10.8918 12.839C10.8718 12.9377 10.8718 13.0561 10.8918 13.1844C10.9017 13.2337 10.9217 13.2929 10.9417 13.3423Z" fill="#DC5A52"/>
</g>
<defs>
<clipPath id="clip0">
<rect width="27.3179" height="27" fill="white"/>
</clipPath>
</defs>
</svg>
