<svg width="129" height="22" viewBox="0 0 129 22" fill="none" xmlns="http://www.w3.org/2000/svg">
<path d="M1.78548 21.38V16.9498H0.0874023V16.088H4.43204V16.9498H2.73396V21.38H1.78548Z" fill="#DC5A52"/>
<path d="M8.91005 21.4707C8.37972 21.4707 7.93608 21.3119 7.57913 20.9944C7.22727 20.6719 7.0131 20.2611 6.93661 19.7621H6.24055V21.38H5.32267V17.3883H6.24055V19.0061H6.93661C7.0182 18.5173 7.23747 18.1141 7.59442 17.7965C7.95648 17.474 8.40012 17.3127 8.92535 17.3127C9.52197 17.3127 10.0064 17.5118 10.3787 17.9099C10.7509 18.3081 10.937 18.802 10.937 19.3917C10.937 19.9713 10.7484 20.4627 10.371 20.8659C9.99366 21.2691 9.50668 21.4707 8.91005 21.4707ZM8.92535 20.6769C9.27211 20.6769 9.53982 20.5559 9.7285 20.314C9.92227 20.0671 10.0192 19.7596 10.0192 19.3917C10.0192 19.0288 9.91717 18.7239 9.7132 18.4769C9.51433 18.23 9.24661 18.1065 8.91005 18.1065C8.5633 18.1065 8.29558 18.2275 8.10691 18.4694C7.91823 18.7113 7.82389 19.0187 7.82389 19.3917C7.82389 19.7546 7.92333 20.0595 8.12221 20.3065C8.32108 20.5534 8.5888 20.6769 8.92535 20.6769Z" fill="#DC5A52"/>
<path d="M11.8811 21.38V17.3883H12.799L14.0611 19.2405L15.3308 17.3883H16.2487V21.38H15.3155V18.7189L14.0458 20.5106L12.7837 18.734V21.38H11.8811Z" fill="#DC5A52"/>
<path d="M19.2598 21.4707C18.6682 21.4707 18.1736 21.2767 17.7759 20.8886C17.3832 20.5005 17.1869 19.999 17.1869 19.3841C17.1869 18.8045 17.373 18.3131 17.7453 17.9099C18.1175 17.5067 18.5892 17.3051 19.1603 17.3051C19.7722 17.3051 20.2465 17.5118 20.583 17.9251C20.9247 18.3333 21.0955 18.8423 21.0955 19.4522C21.0955 19.5631 21.0904 19.6487 21.0802 19.7092H18.1124C18.1634 20.0267 18.2934 20.2762 18.5025 20.4577C18.7116 20.6341 18.9691 20.7223 19.2751 20.7223C19.6728 20.7223 20.0374 20.5635 20.3689 20.246L20.9119 20.7223C20.4938 21.2212 19.9431 21.4707 19.2598 21.4707ZM18.1048 19.1044H20.1776C20.147 18.797 20.0425 18.545 19.864 18.3484C19.6856 18.1519 19.4484 18.0536 19.1527 18.0536C18.8722 18.0536 18.6376 18.1519 18.449 18.3484C18.2603 18.5399 18.1456 18.7919 18.1048 19.1044Z" fill="#DC5A52"/>
<path d="M22.025 21.38V17.3883H22.9505V19.0061H24.7327V17.3883H25.6583V21.38H24.7327V19.7697H22.9505V21.38H22.025Z" fill="#DC5A52"/>
<path d="M28.6869 21.4707C28.0903 21.4707 27.5931 21.2716 27.1954 20.8735C26.7976 20.4703 26.5987 19.9814 26.5987 19.4068V19.3917C26.5987 18.8171 26.7976 18.3257 27.1954 17.9175C27.5982 17.5093 28.0979 17.3051 28.6946 17.3051C29.3473 17.3051 29.8853 17.5345 30.3085 17.9931L29.7348 18.6055C29.4136 18.2728 29.0643 18.1065 28.6869 18.1065C28.3555 18.1065 28.0775 18.23 27.8532 18.4769C27.6339 18.7239 27.5243 19.0238 27.5243 19.3766V19.3917C27.5243 19.7546 27.6365 20.0595 27.8608 20.3065C28.0903 20.5534 28.381 20.6769 28.7328 20.6769C29.1051 20.6769 29.4544 20.5106 29.7807 20.1779L30.3391 20.7223C30.1198 20.9642 29.8802 21.1507 29.6201 21.2817C29.3651 21.4077 29.0541 21.4707 28.6869 21.4707Z" fill="#DC5A52"/>
<path d="M31.153 21.38V17.3883H32.0709V19.301L33.8302 17.3883H34.9163L33.3483 19.0666L35.0464 21.38H33.9525L32.7287 19.7319L32.0709 20.4199V21.38H31.153Z" fill="#DC5A52"/>
<path d="M39.0756 21.38H38.1578V20.8886C37.8314 21.2716 37.3954 21.4631 36.8498 21.4631C36.4469 21.4631 36.1053 21.3548 35.8248 21.1381C35.5495 20.9163 35.4118 20.6089 35.4118 20.2157C35.4118 19.7873 35.5622 19.4623 35.8631 19.2405C36.1639 19.0187 36.5591 18.9079 37.0487 18.9079C37.4413 18.9079 37.8136 18.9633 38.1654 19.0742V18.9986C38.1654 18.7214 38.0787 18.5097 37.9053 18.3635C37.7371 18.2174 37.4923 18.1443 37.171 18.1443C36.8039 18.1443 36.4189 18.2275 36.016 18.3938L35.7636 17.6605C36.2634 17.4387 36.7758 17.3278 37.3011 17.3278C37.8875 17.3278 38.3286 17.474 38.6244 17.7663C38.9252 18.0586 39.0756 18.4744 39.0756 19.0137V21.38ZM38.1807 19.936V19.7092C37.9053 19.6034 37.5968 19.5505 37.2552 19.5505C36.9645 19.5505 36.7376 19.6059 36.5744 19.7168C36.4112 19.8277 36.3297 19.9839 36.3297 20.1855C36.3297 20.3669 36.4036 20.5106 36.5515 20.6164C36.6994 20.7223 36.8855 20.7752 37.1099 20.7752C37.4209 20.7752 37.6759 20.6971 37.8748 20.5408C38.0787 20.3846 38.1807 20.183 38.1807 19.936Z" fill="#DC5A52"/>
<path d="M39.8093 21.38L40.926 19.8831C40.6405 19.7974 40.411 19.6538 40.2376 19.4522C40.0694 19.2455 39.9852 18.991 39.9852 18.6886C39.9852 18.2955 40.1255 17.9805 40.4059 17.7436C40.6864 17.5067 41.0765 17.3883 41.5762 17.3883H43.6032V21.38H42.6777V20.0343H41.8516L40.8955 21.38H39.8093ZM41.7062 19.3463H42.6777V18.1292H41.6986C41.4538 18.1292 41.2601 18.1846 41.1173 18.2955C40.9796 18.4013 40.9107 18.5475 40.9107 18.734C40.9107 18.9255 40.9821 19.0767 41.1249 19.1876C41.2728 19.2934 41.4666 19.3463 41.7062 19.3463Z" fill="#DC5A52"/>
<path d="M48.976 21.4707C48.3641 21.4707 47.8541 21.2691 47.4462 20.8659C47.0382 20.4627 46.8342 19.9713 46.8342 19.3917C46.8342 18.8121 47.0408 18.3207 47.4538 17.9175C47.8669 17.5093 48.3793 17.3051 48.9913 17.3051C49.6032 17.3051 50.1131 17.5067 50.5211 17.9099C50.9341 18.3131 51.1406 18.8071 51.1406 19.3917C51.1406 19.9663 50.9341 20.4577 50.5211 20.8659C50.108 21.2691 49.593 21.4707 48.976 21.4707ZM48.9913 20.6769C49.3584 20.6769 49.6542 20.5534 49.8786 20.3065C50.1029 20.0595 50.2151 19.7546 50.2151 19.3917C50.2151 19.0339 50.0978 18.7315 49.8633 18.4845C49.6287 18.2325 49.3329 18.1065 48.976 18.1065C48.6139 18.1065 48.3207 18.23 48.0963 18.4769C47.872 18.7239 47.7598 19.0288 47.7598 19.3917C47.7598 19.7445 47.8771 20.0469 48.1116 20.2989C48.3462 20.5509 48.6394 20.6769 48.9913 20.6769Z" fill="#DC5A52"/>
<path d="M54.0566 20.6769C54.3983 20.6769 54.6762 20.561 54.8904 20.3291C55.1097 20.0923 55.2193 19.7999 55.2193 19.4522C55.2193 19.1095 55.1046 18.8197 54.8751 18.5828C54.6507 18.3409 54.3728 18.2199 54.0413 18.2199C53.7048 18.2199 53.4269 18.3383 53.2076 18.5752C52.9934 18.8121 52.8863 19.1044 52.8863 19.4522C52.8863 19.7949 52.9985 20.0847 53.2229 20.3216C53.4473 20.5585 53.7252 20.6769 54.0566 20.6769ZM54.0413 21.4707C53.3886 21.4707 52.8787 21.2666 52.5115 20.8583C52.1444 20.4501 51.9608 19.8781 51.9608 19.1422C51.9608 18.9053 51.9659 18.6987 51.9761 18.5223C51.9914 18.3409 52.0169 18.1468 52.0526 17.9402C52.0883 17.7285 52.1418 17.5445 52.2132 17.3883C52.2897 17.2321 52.3841 17.0834 52.4962 16.9423C52.6135 16.7961 52.7614 16.6751 52.9399 16.5794C53.1235 16.4786 53.3351 16.403 53.5748 16.3526L55.7777 15.899L55.9307 16.6323L53.7277 17.1086C53.3606 17.1842 53.098 17.3203 52.9399 17.5168C52.7818 17.7083 52.69 17.9503 52.6645 18.2426C52.7869 18.041 52.9781 17.8671 53.2382 17.7209C53.5034 17.5697 53.8297 17.4941 54.2173 17.4941C54.7425 17.4941 55.1938 17.6831 55.5711 18.0611C55.9536 18.4341 56.1448 18.8927 56.1448 19.4371C56.1448 19.9965 55.9434 20.4753 55.5406 20.8735C55.1428 21.2716 54.6431 21.4707 54.0413 21.4707Z" fill="#DC5A52"/>
<path d="M57.0573 21.4253C56.9094 21.4253 56.7284 21.4077 56.5142 21.3724L56.5831 20.624C56.6647 20.6441 56.7539 20.6542 56.8508 20.6542C56.9579 20.6542 57.0446 20.6391 57.1109 20.6089C57.1823 20.5786 57.2537 20.503 57.325 20.3821C57.4015 20.2561 57.4602 20.0797 57.501 19.8529C57.5418 19.6261 57.5749 19.3085 57.6004 18.9003C57.6259 18.487 57.6386 17.983 57.6386 17.3883H60.6906V21.38H59.7651V18.1745H58.503C58.503 18.7441 58.48 19.2279 58.4341 19.6261C58.3883 20.0242 58.3271 20.3392 58.2506 20.5711C58.1792 20.8029 58.0772 20.9843 57.9446 21.1154C57.8171 21.2414 57.6871 21.3245 57.5545 21.3649C57.4219 21.4052 57.2562 21.4253 57.0573 21.4253Z" fill="#DC5A52"/>
<path d="M65.2421 21.38H64.3242V20.8886C63.9979 21.2716 63.5619 21.4631 63.0163 21.4631C62.6134 21.4631 62.2718 21.3548 61.9913 21.1381C61.7159 20.9163 61.5782 20.6089 61.5782 20.2157C61.5782 19.7873 61.7287 19.4623 62.0295 19.2405C62.3304 19.0187 62.7256 18.9079 63.2151 18.9079C63.6078 18.9079 63.98 18.9633 64.3319 19.0742V18.9986C64.3319 18.7214 64.2452 18.5097 64.0718 18.3635C63.9035 18.2174 63.6588 18.1443 63.3375 18.1443C62.9704 18.1443 62.5854 18.2275 62.1825 18.3938L61.9301 17.6605C62.4298 17.4387 62.9423 17.3278 63.4676 17.3278C64.054 17.3278 64.4951 17.474 64.7908 17.7663C65.0917 18.0586 65.2421 18.4744 65.2421 19.0137V21.38ZM64.3472 19.936V19.7092C64.0718 19.6034 63.7633 19.5505 63.4217 19.5505C63.131 19.5505 62.9041 19.6059 62.7409 19.7168C62.5777 19.8277 62.4961 19.9839 62.4961 20.1855C62.4961 20.3669 62.5701 20.5106 62.718 20.6164C62.8658 20.7223 63.052 20.7752 63.2763 20.7752C63.5874 20.7752 63.8424 20.6971 64.0412 20.5408C64.2452 20.3846 64.3472 20.183 64.3472 19.936Z" fill="#DC5A52"/>
<path d="M68.2093 21.4707C67.6127 21.4707 67.1155 21.2716 66.7177 20.8735C66.32 20.4703 66.1211 19.9814 66.1211 19.4068V19.3917C66.1211 18.8171 66.32 18.3257 66.7177 17.9175C67.1206 17.5093 67.6203 17.3051 68.2169 17.3051C68.8696 17.3051 69.4076 17.5345 69.8309 17.9931L69.2572 18.6055C68.9359 18.2728 68.5866 18.1065 68.2093 18.1065C67.8778 18.1065 67.5999 18.23 67.3755 18.4769C67.1563 18.7239 67.0466 19.0238 67.0466 19.3766V19.3917C67.0466 19.7546 67.1588 20.0595 67.3832 20.3065C67.6127 20.5534 67.9033 20.6769 68.2552 20.6769C68.6274 20.6769 68.9767 20.5106 69.3031 20.1779L69.8615 20.7223C69.6422 20.9642 69.4025 21.1507 69.1425 21.2817C68.8875 21.4077 68.5764 21.4707 68.2093 21.4707Z" fill="#DC5A52"/>
<path d="M71.5397 21.38V18.1745H70.2394V17.3883H73.7732V18.1745H72.4729V21.38H71.5397Z" fill="#DC5A52"/>
<path d="M74.5073 21.38V17.3883H75.4329V18.7869H76.3584C76.8377 18.7869 77.2253 18.8927 77.521 19.1044C77.8168 19.3161 77.9647 19.6311 77.9647 20.0494C77.9647 20.4627 77.827 20.7878 77.5516 21.0247C77.2763 21.2615 76.9015 21.38 76.4272 21.38H74.5073ZM75.4329 20.6391H76.3049C76.5394 20.6391 76.7205 20.5887 76.8479 20.4879C76.9754 20.3871 77.0392 20.2409 77.0392 20.0494C77.0392 19.873 76.9729 19.7369 76.8403 19.6412C76.7128 19.5454 76.5292 19.4975 76.2896 19.4975H75.4329V20.6391Z" fill="#DC5A52"/>
<path d="M5.88538 11.8717C4.33518 11.8717 3.02465 11.3526 1.95379 10.3143C0.893124 9.266 0.362793 7.95056 0.362793 6.368C0.362793 4.81568 0.898223 3.51032 1.96908 2.45192C3.05014 1.39352 4.39637 0.864319 6.00776 0.864319C7.91491 0.864319 9.41412 1.61024 10.5054 3.10208L8.33306 4.76528C7.67014 3.9488 6.88485 3.54056 5.97716 3.54056C5.23266 3.54056 4.62074 3.81272 4.1414 4.35704C3.66206 4.90136 3.4224 5.57168 3.4224 6.368C3.4224 7.1744 3.66206 7.84976 4.1414 8.39408C4.62074 8.92832 5.23266 9.19544 5.97716 9.19544C6.4973 9.19544 6.94094 9.0896 7.30809 8.87792C7.67524 8.65616 8.0373 8.3336 8.39425 7.91024L10.6278 9.48272C10.0668 10.2387 9.41412 10.8284 8.66961 11.2518C7.92511 11.665 6.99703 11.8717 5.88538 11.8717Z" fill="#DC5A52"/>
<path d="M14.5206 11.66V3.6464H11.308V1.076H20.701V3.6464H17.4884V11.66H14.5206Z" fill="#DC5A52"/>
<path d="M22.0037 11.66V1.076H30.6165V3.5708H24.941V5.17352H30.0811V7.48688H24.941V9.1652H30.693V11.66H22.0037Z" fill="#DC5A52"/>
<path d="M32.2074 11.66V1.076H35.1752V5.03744H38.9844V1.076H41.9522V11.66H38.9844V7.63808H35.1752V11.66H32.2074Z" fill="#DC5A52"/>
<path d="M42.9885 11.66L47.5474 1.0004H50.4081L54.9669 11.66H51.7849L51.0047 9.77H46.8742L46.1093 11.66H42.9885ZM47.7462 7.48688H50.148L48.9548 4.478L47.7462 7.48688Z" fill="#DC5A52"/>
<path d="M60.2488 11.66V1.076H69.8406V11.66H66.8728V3.6464H63.2166V11.66H60.2488Z" fill="#DC5A52"/>
<path d="M70.8805 11.66L75.4393 1.0004H78.3001L82.8589 11.66H79.6769L78.8967 9.77H74.7662L74.0013 11.66H70.8805ZM75.6382 7.48688H78.04L76.8468 4.478L75.6382 7.48688Z" fill="#DC5A52"/>
<path d="M83.8979 11.66V1.076H87.034L89.5888 5.17352L92.1436 1.076H95.2797V11.66H92.3272V5.58176L89.5888 9.72464H89.5276L86.8046 5.612V11.66H83.8979Z" fill="#DC5A52"/>
<path d="M96.6896 11.66L99.2444 7.97072C97.7758 7.35584 97.0415 6.26216 97.0415 4.68968C97.0415 3.51032 97.4545 2.6132 98.2806 1.99832C99.1169 1.38344 100.183 1.076 101.478 1.076H106.542V11.66H103.574V8.45456H102.273L100.116 11.66H96.6896ZM101.616 6.20168H103.574V3.5708H101.631C101.131 3.5708 100.738 3.68672 100.453 3.91856C100.167 4.1504 100.025 4.478 100.025 4.90136C100.025 5.29448 100.162 5.612 100.438 5.85392C100.723 6.08576 101.116 6.20168 101.616 6.20168Z" fill="#DC5A52"/>
<path d="M111.059 11.66V3.6464H107.847V1.076H117.24V3.6464H114.027V11.66H111.059Z" fill="#DC5A52"/>
<path d="M118.543 11.66V1.076H121.48V7.03328L125.626 1.076H128.394V11.66H125.457V5.70272L121.312 11.66H118.543Z" fill="#DC5A52"/>
</svg>
